<?xml version="1.0" encoding="utf-8"?>
<svg class="icon" width="200px" height="200.00px" viewBox="0 0 1024 1024" version="1.1" xmlns="http://www.w3.org/2000/svg">
  <path d="M480.8 457.76a271.04 271.04 0 0 0-37.28 2.72c-96 13.44-166.72 75.04-157.92 137.44s93.6 101.92 189.6 88.48 166.72-75.04 157.92-137.44c-7.68-54.08-73.12-91.04-152.32-91.2z m-23.36 211.52a122.08 122.08 0 0 1-24 2.4c-48 0-88-27.52-96-68.32-9.28-48 29.44-95.2 86.56-106.24s110.88 18.4 120 66.08-29.44 95.04-86.56 106.08z" fill="#F56467"/>
  <path d="M 514.428 1.691 C 123.69 1.691 -120.52 425.686 74.848 764.881 C 270.217 1104.075 758.64 1104.075 954.007 764.881 C 998.557 687.535 1022.011 599.795 1022.011 510.484 C 1022.011 229.486 794.759 1.691 514.428 1.691 Z M 463.707 775.086 C 289.885 775.086 149.013 683.978 149.013 570.975 C 149.013 457.973 360.043 281.694 440.383 281.694 C 474.258 281.694 540.529 306.929 494.065 387.09 C 507.472 384.15 520.651 380.244 533.495 375.399 C 570.517 364.823 622.534 354.248 658.077 375.399 C 717.128 409.728 658.077 464.837 658.077 470.961 C 658.077 477.084 776.551 477.084 776.551 572.089 C 776.919 683.978 637.529 775.086 463.707 775.086 Z M 711.019 358.885 C 696.717 344.475 676.507 337.608 656.411 340.33 C 646.493 340.63 637.911 333.462 636.419 323.63 C 636.327 324.556 636.327 325.487 636.419 326.414 L 636.419 320.846 C 636.327 321.772 636.327 322.705 636.419 323.63 C 637.942 313.26 646.065 305.116 656.411 303.59 C 684.681 297.533 714.127 305.553 735.454 325.114 C 772.477 358.143 757.112 412.882 757.112 412.882 C 754.928 424.334 745.047 432.69 733.418 432.922 L 731.382 432.922 C 720.797 433.868 712.852 423.416 716.573 413.439 C 724.079 395.489 721.988 374.947 711.019 358.885 Z M 850.04 429.211 C 848.162 445.037 835.666 457.487 819.866 459.27 C 804.953 457.88 794.428 443.984 797.098 429.211 C 806.047 386.762 797.574 342.488 773.587 306.373 C 733.233 248.294 646.415 258.5 646.415 258.5 C 631.117 258.639 618.108 247.347 616.056 232.151 L 616.056 235.491 L 616.056 228.996 L 616.056 232.151 C 617.834 216.671 630.868 204.961 646.415 204.873 C 704.063 201.413 760.723 221.035 803.948 259.428 C 871.142 323.259 850.04 429.211 850.04 429.211 Z" fill="#F56467" style=""/>
  <path d="M459.36 547.04a17.6 17.6 0 1 0 17.6 17.6 17.6 17.6 0 0 0-17.6-17.6zM415.04 570.24a43.52 43.52 0 0 0-18.4 4.32 32 32 0 0 0-20.64 38.56 32 32 0 0 0 42.88 9.12 32 32 0 0 0 20.64-38.72 25.76 25.76 0 0 0-24.48-13.28z" fill="#F56467"/>
</svg>